<svg xmlns="http://www.w3.org/2000/svg" viewBox="0 0 24 24"><g data-name="Edit User" fill="none" stroke="#303c42" stroke-linecap="round" stroke-linejoin="round"><g data-name="&lt;Group&gt;"><path data-name="&lt;Path&gt;" d="M23.09 16.91L17 23l-2.5.5.5-2.5 6.09-6.08a1.41 1.41 0 011-.41h0a1.41 1.41 0 011.41 1.41h0a1.41 1.41 0 01-.41.99zM20 16l2 2"/></g><g data-name="&lt;Group&gt;"><circle data-name="&lt;Path&gt;" cx="11" cy="6" r="5.5"/><path d="M19.91 16.09a4 4 0 00-.6-.39A18.74 18.74 0 0011 13.5a18.74 18.74 0 00-8.31 2.2A4 4 0 00.5 19.27V20A1.5 1.5 0 002 21.5h12.9"/></g></g></svg>