<svg xmlns="http://www.w3.org/2000/svg" viewBox="0 0 48 48"><path fill="#0c0c0c" d="M24 0C10.767 0 0 10.767 0 24s10.767 24 24 24 24-10.767 24-24S37.233 0 24 0zm0 47C11.318 47 1 36.682 1 24S11.318 1 24 1s23 10.318 23 23-10.318 23-23 23z"/><path fill="#0c0c0c" d="M18.008 24.988a.5.5 0 0 0 .5-.5V21.78c0-.486.259-.944.677-1.195l1.867-1.12.992 1.24a.502.502 0 0 0 .363.187l.028.001c.132 0 .26-.053.354-.146l.716-.717v4.459a.5.5 0 0 0 1 0v-4.475l.732.732a.5.5 0 0 0 .354.146l.028-.001a.498.498 0 0 0 .363-.187l.989-1.237 1.861 1.117c.418.251.677.709.677 1.195v2.708a.5.5 0 0 0 1 0V21.78c0-.835-.445-1.622-1.162-2.053l-2.171-1.303-.803-.891c-.049-.054-.117-.075-.182-.103v-.753a3.346 3.346 0 0 0 1.188-2.546v-1.158l.5-2.311c.087-.482-.02-.97-.303-1.371a1.8 1.8 0 0 0-1.188-.746l-3.106-.519a1.786 1.786 0 0 0-2.038 1.368 1.559 1.559 0 0 0-.766.515 1.574 1.574 0 0 0-.308 1.34l.473 1.726v1.156a3.35 3.35 0 0 0 1.252 2.599v.665a.496.496 0 0 0-.243.138l-.793.881-2.19 1.314a2.41 2.41 0 0 0-1.162 2.053v2.708a.5.5 0 0 0 .501.499zm7.54-5.345l-.682-.682 1.012-.482.318.354-.648.81zm-4.293-9.106a.563.563 0 0 1 .44-.21c.276 0 .5-.258.5-.534a.79.79 0 0 1 .921-.782l3.107.519a.812.812 0 0 1 .534.335c.127.181.175.4.139.602l-.285 1.316-.235-.293a.5.5 0 0 0-.39-.187h-3.953a.497.497 0 0 0-.39.188l-.276.345-.227-.824a.568.568 0 0 1 .115-.475zm.388 2.552l.631-.786h3.474l.63.783v1.044a2.37 2.37 0 0 1-2.368 2.368 2.37 2.37 0 0 1-2.367-2.368v-1.041zm2.367 4.409c.417 0 .811-.086 1.18-.225v.427l-1.178.561-1.116-.531v-.435c.35.123.722.203 1.114.203zm-1.864.982l1.012.481-.682.682-.648-.81.318-.353z"/><path fill="#0c0c0c" d="M20.508 24.988a.5.5 0 0 0 .5-.5v-1.05c0-.599-.222-1.172-.626-1.613l-.395-.433a.499.499 0 1 0-.738.674l.395.433c.235.258.364.591.364.939v1.05a.5.5 0 0 0 .5.5zM28.024 21.392l-.394.432a2.386 2.386 0 0 0-.626 1.614v1.05a.5.5 0 0 0 1 0v-1.05c0-.349.129-.683.365-.939l.395-.433a.5.5 0 1 0-.74-.674zM15 34c-1.654 0-3 1.346-3 3s1.346 3 3 3 3-1.346 3-3-1.346-3-3-3zm0 5c-1.103 0-2-.897-2-2s.897-2 2-2 2 .897 2 2-.897 2-2 2zM33 34c-1.654 0-3 1.346-3 3s1.346 3 3 3 3-1.346 3-3-1.346-3-3-3zm0 5c-1.103 0-2-.897-2-2s.897-2 2-2 2 .897 2 2-.897 2-2 2zM31.008 30c.827 0 1.5.673 1.5 1.5v1a.5.5 0 0 0 1 0v-1c0-1.379-1.122-2.5-2.5-2.5h-5c-.827 0-1.5-.673-1.5-1.5v-1a.5.5 0 0 0-1 0v1c0 .827-.673 1.5-1.5 1.5h-5a2.503 2.503 0 0 0-2.5 2.5v1a.5.5 0 0 0 1 0v-1c0-.827.673-1.5 1.5-1.5h5c.821 0 1.544-.403 2-1.015a2.489 2.489 0 0 0 2 1.015h5z"/></svg>