<?xml version="1.0" encoding="UTF-8" standalone="no"?>
<svg xmlns:dc="http://purl.org/dc/elements/1.1/" xmlns:cc="http://creativecommons.org/ns#" xmlns:rdf="http://www.w3.org/1999/02/22-rdf-syntax-ns#" xmlns:svg="http://www.w3.org/2000/svg" xmlns="http://www.w3.org/2000/svg" xmlns:sodipodi="http://sodipodi.sourceforge.net/DTD/sodipodi-0.dtd" xmlns:inkscape="http://www.inkscape.org/namespaces/inkscape" width="16px" height="16px" viewBox="0 0 16 16" id="svg2" version="1.1" inkscape:version="0.91 r13725" sodipodi:docname="235.svg">
  <defs id="defs4"/>
  <sodipodi:namedview id="base" pagecolor="#ffffff" bordercolor="#666666" borderopacity="1.0" inkscape:pageopacity="0.0" inkscape:pageshadow="2" inkscape:zoom="22.4" inkscape:cx="-5.248816" inkscape:cy="10.894764" inkscape:document-units="px" inkscape:current-layer="g8262" showgrid="true" units="px" inkscape:window-width="1366" inkscape:window-height="715" inkscape:window-x="-8" inkscape:window-y="-8" inkscape:window-maximized="1">
    <inkscape:grid type="xygrid" id="grid3336"/>
  </sodipodi:namedview>
  
  <g inkscape:label="Layer 1" inkscape:groupmode="layer" id="layer1" transform="translate(0,-1036.3622)">
    <g id="g8262" transform="translate(0.21663907,-0.49245047)">
      <path style="color:#000000;font-style:normal;font-variant:normal;font-weight:normal;font-stretch:normal;font-size:medium;line-height:normal;font-family:sans-serif;text-indent:0;text-align:start;text-decoration:none;text-decoration-line:none;text-decoration-style:solid;text-decoration-color:#000000;letter-spacing:normal;word-spacing:normal;text-transform:none;direction:ltr;block-progression:tb;writing-mode:lr-tb;baseline-shift:baseline;text-anchor:start;white-space:normal;clip-rule:nonzero;display:inline;overflow:visible;visibility:visible;opacity:1;isolation:auto;mix-blend-mode:normal;color-interpolation:sRGB;color-interpolation-filters:linearRGB;solid-color:#000000;solid-opacity:1;fill:#000000;fill-opacity:1;fill-rule:nonzero;stroke:none;stroke-width:1;stroke-linecap:round;stroke-linejoin:round;stroke-miterlimit:4;stroke-dasharray:none;stroke-dashoffset:0;stroke-opacity:1;color-rendering:auto;image-rendering:auto;shape-rendering:auto;text-rendering:auto;enable-background:accumulate" d="M 6.0019531 1.0019531 C 4.3486018 1.0019531 3.0019531 2.3486531 3.0019531 4.0019531 L 3.0019531 6.0019531 C 3.0019531 6.9359287 3.4393691 7.7636949 4.1113281 8.3144531 C 1.9780355 9.0755001 0.41858042 11.08867 0.34570312 13.486328 C 0.3457293 13.748028 0.5839109 13.986228 0.84570312 13.986328 L 11.158203 14.017578 C 11.430743 14.018078 11.675208 13.758328 11.658203 13.486328 C 11.633623 12.587828 11.370199 11.765078 10.970703 11.017578 L 10.314453 11.705078 L 10.189453 11.830078 C 10.354105 12.215978 10.504795 12.586578 10.564453 13.017578 L 6.7207031 13.017578 L 6.0019531 13.017578 L 1.4707031 13.017578 C 1.8057403 10.775411 3.6704018 9.0242397 5.9707031 8.9980469 C 5.9814045 8.99816 5.9912256 9.0019531 6.0019531 9.0019531 C 6.0547958 9.0019531 6.1040679 8.9890453 6.15625 8.9863281 C 6.1569147 8.986348 6.1575384 8.9863079 6.1582031 8.9863281 C 6.4659592 8.9963281 6.77682 9.0453281 7.0644531 9.1113281 L 7.0644531 9.0800781 L 7.1269531 8.8613281 L 7.2871094 8.7011719 C 8.2969123 8.2175768 9.0019531 7.1936845 9.0019531 6.0019531 L 9.0019531 4.0019531 C 9.0019531 2.3486531 7.6553045 1.0019531 6.0019531 1.0019531 z M 6.0019531 2.0019531 C 7.1186018 2.0019531 8.0019532 2.8853531 8.0019531 4.0019531 L 8.0019531 6.0019531 C 8.0019531 7.064281 7.1993569 7.9059662 6.1601562 7.9863281 C 6.1595058 7.9863784 6.1588538 7.9862784 6.1582031 7.9863281 C 6.0693637 7.98362 5.9824872 7.990758 5.8945312 7.9921875 C 4.830364 7.9364394 4.0019531 7.0817614 4.0019531 6.0019531 L 4.0019531 4.0019531 C 4.0019531 2.8853531 4.8853045 2.0019531 6.0019531 2.0019531 z M 14.099609 3.0214844 C 13.855101 3.0214844 13.610831 3.113575 13.427734 3.296875 L 12.427734 4.296875 L 12.435547 4.3046875 L 7.578125 9.1386719 L 6.4296875 12.587891 L 9.8769531 11.439453 L 15.089844 6.2246094 L 15.722656 5.5917969 L 15.724609 5.5917969 C 16.090751 5.2254969 16.090751 4.6142469 15.724609 4.2480469 L 15.722656 4.2480469 L 14.771484 3.296875 C 14.588386 3.113775 14.344118 3.0214844 14.099609 3.0214844 z M 14.099609 4.0390625 L 14.980469 4.9199219 L 14.378906 5.5234375 L 13.490234 4.6484375 L 14.099609 4.0390625 z M 12.791016 5.3632812 L 13.671875 6.2304688 L 9.7617188 10.138672 L 8.8808594 9.2558594 L 12.791016 5.3632812 z M 8.3125 10.101562 L 8.9140625 10.705078 L 8.0097656 11.005859 L 8.3125 10.101562 z " transform="translate(-0.21663907,1036.8547)" id="rect8178"/>
    </g>
  </g>

	
	
	<metadata>
		<rdf:RDF xmlns:rdf="http://www.w3.org/1999/02/22-rdf-syntax-ns#" xmlns:rdfs="http://www.w3.org/2000/01/rdf-schema#" xmlns:dc="http://purl.org/dc/elements/1.1/">
			<rdf:Description about="https://iconscout.com/legal#licenses" dc:title="User, Edit, Pen, Pencil, Ui, Write, Add, Interface" dc:description="User, Edit, Pen, Pencil, Ui, Write, Add, Interface" dc:publisher="Iconscout" dc:date="2016-12-14" dc:format="image/svg+xml" dc:language="en">
				<dc:creator>
					<rdf:Bag>
						<rdf:li>Chamestudio</rdf:li>
					</rdf:Bag>
				</dc:creator>
			</rdf:Description>
		</rdf:RDF>
    </metadata></svg>
